<svg xmlns="http://www.w3.org/2000/svg" width="400" height="400" id="globe">
  <path fill="#0E538C" d="M299.544 294.874c-2.176-3.808-7.341-5.167-11.148-2.991-69.881 40.243-159.342 16.588-199.584-52.479C48.84 170.338 73.04 81.421 142.921 41.179c3.807-2.176 5.167-7.342 2.991-11.148-2.175-3.808-7.342-5.167-11.148-2.992C56.997 71.904 30.077 170.881 74.671 247.561c27.735 47.857 76.408 75.864 128.072 79.67v22.298h-31.27a12.185 12.185 0 0 0-12.236 12.235A12.184 12.184 0 0 0 171.473 374h78.855a12.185 12.185 0 0 0 12.236-12.236 12.185 12.185 0 0 0-12.236-12.235h-33.445 2.175v-21.753c26.375-.545 53.023-7.615 77.496-21.754 3.806-2.448 5.166-7.34 2.99-11.148z"></path>
  <path fill="#2A94F4" d="M216.338 297.864c-72.057 0-130.519-58.462-130.519-130.52 0-72.057 58.462-130.518 130.52-130.518 72.057 0 130.519 58.46 130.519 130.519-.001 72.057-58.462 130.519-130.52 130.519z"></path>
  <path fill="#FFBE55" d="M118.993 80.333c-8.974 34.806-17.131 85.109 8.701 79.398 24.744-5.438 55.471-11.42 70.153-13.595 14.684-2.175 32.357 12.508 52.207 23.113 2.719 11.148 2.99 17.129-12.508 28.551-15.771 11.691-23.113-11.148-29.367-4.351-10.332 12.508-3.263 24.2-16.587 51.391-13.323 26.648-14.683 22.569-24.2 43.507 14.956 5.982 31.543 9.518 48.944 9.518 50.576 0 94.354-28.824 116.107-70.698-3.535-7.342-8.429-14.955-15.227-23.384-20.938-25.289-42.963-35.621-77.495-56.831-34.533-20.937-29.367-30.453-20.938-39.971 8.429-9.518 21.48-50.305-3.264-63.084l-11.148-6.798c-33.714 3.263-63.897 19.305-85.378 43.234z"></path>
</svg>
